<?xml version="1.0" encoding="us-ascii" standalone="no"?><svg xmlns="http://www.w3.org/2000/svg" xmlns:xlink="http://www.w3.org/1999/xlink" contentStyleType="text/css" height="832px" preserveAspectRatio="none" style="width:1028px;height:832px;background:#FFFFFF;" version="1.1" viewBox="0 0 1028 832" width="1028px" zoomAndPan="magnify"><defs/><g><!--class Main--><g id="elem_Main"><rect codeLine="2" fill="#F1F1F1" height="129.4844" id="Main" rx="2.5" ry="2.5" style="stroke:#181818;stroke-width:0.5;" width="435" x="317" y="7"/><ellipse cx="514.25" cy="23" fill="#ADD1B2" rx="11" ry="11" style="stroke:#181818;stroke-width:1.0;"/><path d="M517.2188,28.6406 Q516.6406,28.9375 516,29.0781 Q515.3594,29.2344 514.6563,29.2344 Q512.1563,29.2344 510.8281,27.5938 Q509.5156,25.9375 509.5156,22.8125 Q509.5156,19.6875 510.8281,18.0313 Q512.1563,16.375 514.6563,16.375 Q515.3594,16.375 516,16.5313 Q516.6563,16.6875 517.2188,16.9844 L517.2188,19.7031 Q516.5938,19.125 516,18.8594 Q515.4063,18.5781 514.7813,18.5781 Q513.4375,18.5781 512.75,19.6563 Q512.0625,20.7188 512.0625,22.8125 Q512.0625,24.9063 512.75,25.9844 Q513.4375,27.0469 514.7813,27.0469 Q515.4063,27.0469 516,26.7813 Q516.5938,26.5 517.2188,25.9219 L517.2188,28.6406 Z " fill="#000000"/><text fill="#000000" font-family="sans-serif" font-size="14" lengthAdjust="spacing" textLength="32" x="534.75" y="27.8467">Main</text><line style="stroke:#181818;stroke-width:0.5;" x1="318" x2="751" y1="39" y2="39"/><rect fill="none" height="6" style="stroke:#C82930;stroke-width:1.0;" width="6" x="325" y="49.6484"/><text fill="#000000" font-family="sans-serif" font-size="14" lengthAdjust="spacing" textLength="202" x="337" y="55.9951">cloudletList : List&lt;cloudlet3&gt;</text><rect fill="none" height="6" style="stroke:#C82930;stroke-width:1.0;" width="6" x="325" y="65.9453"/><text fill="#000000" font-family="sans-serif" font-size="14" lengthAdjust="spacing" textLength="128" x="337" y="72.292">vmlist : List&lt;vm3&gt;</text><line style="stroke:#181818;stroke-width:0.5;" x1="318" x2="751" y1="79.5938" y2="79.5938"/><ellipse cx="328" cy="93.2422" fill="#84BE84" rx="3" ry="3" style="stroke:#038048;stroke-width:1.0;"/><text fill="#000000" font-family="sans-serif" font-size="14" lengthAdjust="spacing" textLength="303" x="337" y="96.5889">createVM(userId : int, vms : int) : List&lt;vm3&gt;</text><ellipse cx="328" cy="109.5391" fill="#84BE84" rx="3" ry="3" style="stroke:#038048;stroke-width:1.0;"/><text fill="#000000" font-family="sans-serif" font-size="14" lengthAdjust="spacing" textLength="409" x="337" y="112.8857">createCloudlet(userId : int, cloudlets : int) : List&lt;cloudlet3&gt;</text><ellipse cx="328" cy="125.8359" fill="#84BE84" rx="3" ry="3" style="stroke:#038048;stroke-width:1.0;"/><text fill="#000000" font-family="sans-serif" font-size="14" lengthAdjust="spacing" textLength="177" x="337" y="129.1826">main(args : String[]) : void</text></g><!--class Population--><g id="elem_Population"><rect codeLine="15" fill="#F1F1F1" height="243.5625" id="Population" rx="2.5" ry="2.5" style="stroke:#181818;stroke-width:0.5;" width="419" x="7" y="229"/><ellipse cx="175.75" cy="245" fill="#ADD1B2" rx="11" ry="11" style="stroke:#181818;stroke-width:1.0;"/><path d="M178.7188,250.6406 Q178.1406,250.9375 177.5,251.0781 Q176.8594,251.2344 176.1563,251.2344 Q173.6563,251.2344 172.3281,249.5938 Q171.0156,247.9375 171.0156,244.8125 Q171.0156,241.6875 172.3281,240.0313 Q173.6563,238.375 176.1563,238.375 Q176.8594,238.375 177.5,238.5313 Q178.1563,238.6875 178.7188,238.9844 L178.7188,241.7031 Q178.0938,241.125 177.5,240.8594 Q176.9063,240.5781 176.2813,240.5781 Q174.9375,240.5781 174.25,241.6563 Q173.5625,242.7188 173.5625,244.8125 Q173.5625,246.9063 174.25,247.9844 Q174.9375,249.0469 176.2813,249.0469 Q176.9063,249.0469 177.5,248.7813 Q178.0938,248.5 178.7188,247.9219 L178.7188,250.6406 Z " fill="#000000"/><text fill="#000000" font-family="sans-serif" font-size="14" lengthAdjust="spacing" textLength="73" x="196.25" y="249.8467">Population</text><line style="stroke:#181818;stroke-width:0.5;" x1="8" x2="425" y1="261" y2="261"/><rect fill="none" height="6" style="stroke:#C82930;stroke-width:1.0;" width="6" x="15" y="271.6484"/><text fill="#000000" font-family="sans-serif" font-size="14" lengthAdjust="spacing" textLength="159" x="27" y="277.9951">population : Individual[]</text><rect fill="none" height="6" style="stroke:#C82930;stroke-width:1.0;" width="6" x="15" y="287.9453"/><text fill="#000000" font-family="sans-serif" font-size="14" lengthAdjust="spacing" textLength="184" x="27" y="294.292">populationFitness : double</text><line style="stroke:#181818;stroke-width:0.5;" x1="8" x2="425" y1="301.5938" y2="301.5938"/><ellipse cx="18" cy="315.2422" fill="#84BE84" rx="3" ry="3" style="stroke:#038048;stroke-width:1.0;"/><text fill="#000000" font-family="sans-serif" font-size="14" lengthAdjust="spacing" textLength="215" x="27" y="318.5889">Population(populationSize : int)</text><ellipse cx="18" cy="331.5391" fill="#84BE84" rx="3" ry="3" style="stroke:#038048;stroke-width:1.0;"/><text fill="#000000" font-family="sans-serif" font-size="14" lengthAdjust="spacing" textLength="393" x="27" y="334.8857">Population(populationSize : int, chromosomeLength : int)</text><ellipse cx="18" cy="347.8359" fill="#84BE84" rx="3" ry="3" style="stroke:#038048;stroke-width:1.0;"/><text fill="#000000" font-family="sans-serif" font-size="14" lengthAdjust="spacing" textLength="190" x="27" y="351.1826">getIndividuals() : Individual[]</text><ellipse cx="18" cy="364.1328" fill="#84BE84" rx="3" ry="3" style="stroke:#038048;stroke-width:1.0;"/><text fill="#000000" font-family="sans-serif" font-size="14" lengthAdjust="spacing" textLength="221" x="27" y="367.4795">getFittest(offset : int) : Individual</text><ellipse cx="18" cy="380.4297" fill="#84BE84" rx="3" ry="3" style="stroke:#038048;stroke-width:1.0;"/><text fill="#000000" font-family="sans-serif" font-size="14" lengthAdjust="spacing" textLength="303" x="27" y="383.7764">setPopulationFitness(fitness : double) : void</text><ellipse cx="18" cy="396.7266" fill="#84BE84" rx="3" ry="3" style="stroke:#038048;stroke-width:1.0;"/><text fill="#000000" font-family="sans-serif" font-size="14" lengthAdjust="spacing" textLength="217" x="27" y="400.0732">getPopulationFitness() : double</text><ellipse cx="18" cy="413.0234" fill="#84BE84" rx="3" ry="3" style="stroke:#038048;stroke-width:1.0;"/><text fill="#000000" font-family="sans-serif" font-size="14" lengthAdjust="spacing" textLength="68" x="27" y="416.3701">size() : int</text><ellipse cx="18" cy="429.3203" fill="#84BE84" rx="3" ry="3" style="stroke:#038048;stroke-width:1.0;"/><text fill="#000000" font-family="sans-serif" font-size="14" lengthAdjust="spacing" textLength="387" x="27" y="432.667">setIndividual(offset : int, individual : Individual) : Individual</text><ellipse cx="18" cy="445.6172" fill="#84BE84" rx="3" ry="3" style="stroke:#038048;stroke-width:1.0;"/><text fill="#000000" font-family="sans-serif" font-size="14" lengthAdjust="spacing" textLength="241" x="27" y="448.9639">getIndividual(offset : int) : Individual</text><ellipse cx="18" cy="461.9141" fill="#84BE84" rx="3" ry="3" style="stroke:#038048;stroke-width:1.0;"/><text fill="#000000" font-family="sans-serif" font-size="14" lengthAdjust="spacing" textLength="97" x="27" y="465.2607">shuffle() : void</text></g><!--class Individual--><g id="elem_Individual"><rect codeLine="32" fill="#F1F1F1" height="227.2656" id="Individual" rx="2.5" ry="2.5" style="stroke:#181818;stroke-width:0.5;" width="280" x="151.5" y="582.5"/><ellipse cx="255.75" cy="598.5" fill="#ADD1B2" rx="11" ry="11" style="stroke:#181818;stroke-width:1.0;"/><path d="M258.7188,604.1406 Q258.1406,604.4375 257.5,604.5781 Q256.8594,604.7344 256.1563,604.7344 Q253.6563,604.7344 252.3281,603.0938 Q251.0156,601.4375 251.0156,598.3125 Q251.0156,595.1875 252.3281,593.5313 Q253.6563,591.875 256.1563,591.875 Q256.8594,591.875 257.5,592.0313 Q258.1563,592.1875 258.7188,592.4844 L258.7188,595.2031 Q258.0938,594.625 257.5,594.3594 Q256.9063,594.0781 256.2813,594.0781 Q254.9375,594.0781 254.25,595.1563 Q253.5625,596.2188 253.5625,598.3125 Q253.5625,600.4063 254.25,601.4844 Q254.9375,602.5469 256.2813,602.5469 Q256.9063,602.5469 257.5,602.2813 Q258.0938,602 258.7188,601.4219 L258.7188,604.1406 Z " fill="#000000"/><text fill="#000000" font-family="sans-serif" font-size="14" lengthAdjust="spacing" textLength="63" x="276.25" y="603.3467">Individual</text><line style="stroke:#181818;stroke-width:0.5;" x1="152.5" x2="430.5" y1="614.5" y2="614.5"/><ellipse cx="162.5" cy="628.1484" fill="none" rx="3" ry="3" style="stroke:#038048;stroke-width:1.0;"/><text fill="#000000" font-family="sans-serif" font-size="14" lengthAdjust="spacing" textLength="132" x="171.5" y="631.4951">chromosome : int[]</text><rect fill="none" height="6" style="stroke:#C82930;stroke-width:1.0;" width="6" x="159.5" y="641.4453"/><text fill="#000000" font-family="sans-serif" font-size="14" lengthAdjust="spacing" textLength="107" x="171.5" y="647.792">fitness : double</text><line style="stroke:#181818;stroke-width:0.5;" x1="152.5" x2="430.5" y1="655.0938" y2="655.0938"/><ellipse cx="162.5" cy="668.7422" fill="#84BE84" rx="3" ry="3" style="stroke:#038048;stroke-width:1.0;"/><text fill="#000000" font-family="sans-serif" font-size="14" lengthAdjust="spacing" textLength="205" x="171.5" y="672.0889">Individual(chromosome : int[])</text><ellipse cx="162.5" cy="685.0391" fill="#84BE84" rx="3" ry="3" style="stroke:#038048;stroke-width:1.0;"/><text fill="#000000" font-family="sans-serif" font-size="14" lengthAdjust="spacing" textLength="243" x="171.5" y="688.3857">Individual(chromosomeLength : int)</text><ellipse cx="162.5" cy="701.3359" fill="#84BE84" rx="3" ry="3" style="stroke:#038048;stroke-width:1.0;"/><text fill="#000000" font-family="sans-serif" font-size="14" lengthAdjust="spacing" textLength="167" x="171.5" y="704.6826">getChromosome() : int[]</text><ellipse cx="162.5" cy="717.6328" fill="#84BE84" rx="3" ry="3" style="stroke:#038048;stroke-width:1.0;"/><text fill="#000000" font-family="sans-serif" font-size="14" lengthAdjust="spacing" textLength="205" x="171.5" y="720.9795">getChromosomeLength() : int</text><ellipse cx="162.5" cy="733.9297" fill="#84BE84" rx="3" ry="3" style="stroke:#038048;stroke-width:1.0;"/><text fill="#000000" font-family="sans-serif" font-size="14" lengthAdjust="spacing" textLength="254" x="171.5" y="737.2764">setGene(offset : int, gene : int) : void</text><ellipse cx="162.5" cy="750.2266" fill="#84BE84" rx="3" ry="3" style="stroke:#038048;stroke-width:1.0;"/><text fill="#000000" font-family="sans-serif" font-size="14" lengthAdjust="spacing" textLength="170" x="171.5" y="753.5732">getGene(offset : int) : int</text><ellipse cx="162.5" cy="766.5234" fill="#84BE84" rx="3" ry="3" style="stroke:#038048;stroke-width:1.0;"/><text fill="#000000" font-family="sans-serif" font-size="14" lengthAdjust="spacing" textLength="230" x="171.5" y="769.8701">setFitness(fitness : double) : void</text><ellipse cx="162.5" cy="782.8203" fill="#84BE84" rx="3" ry="3" style="stroke:#038048;stroke-width:1.0;"/><text fill="#000000" font-family="sans-serif" font-size="14" lengthAdjust="spacing" textLength="144" x="171.5" y="786.167">getFitness() : double</text><ellipse cx="162.5" cy="799.1172" fill="#84BE84" rx="3" ry="3" style="stroke:#038048;stroke-width:1.0;"/><text fill="#000000" font-family="sans-serif" font-size="14" lengthAdjust="spacing" textLength="117" x="171.5" y="802.4639">toString() : String</text></g><!--class Particle--><g id="elem_Particle"><rect codeLine="46" fill="#F1F1F1" height="259.8594" id="Particle" rx="2.5" ry="2.5" style="stroke:#181818;stroke-width:0.5;" width="311" x="534" y="566"/><ellipse cx="660.25" cy="582" fill="#ADD1B2" rx="11" ry="11" style="stroke:#181818;stroke-width:1.0;"/><path d="M663.2188,587.6406 Q662.6406,587.9375 662,588.0781 Q661.3594,588.2344 660.6563,588.2344 Q658.1563,588.2344 656.8281,586.5938 Q655.5156,584.9375 655.5156,581.8125 Q655.5156,578.6875 656.8281,577.0313 Q658.1563,575.375 660.6563,575.375 Q661.3594,575.375 662,575.5313 Q662.6563,575.6875 663.2188,575.9844 L663.2188,578.7031 Q662.5938,578.125 662,577.8594 Q661.4063,577.5781 660.7813,577.5781 Q659.4375,577.5781 658.75,578.6563 Q658.0625,579.7188 658.0625,581.8125 Q658.0625,583.9063 658.75,584.9844 Q659.4375,586.0469 660.7813,586.0469 Q661.4063,586.0469 662,585.7813 Q662.5938,585.5 663.2188,584.9219 L663.2188,587.6406 Z " fill="#000000"/><text fill="#000000" font-family="sans-serif" font-size="14" lengthAdjust="spacing" textLength="50" x="680.75" y="586.8467">Particle</text><line style="stroke:#181818;stroke-width:0.5;" x1="535" x2="844" y1="598" y2="598"/><ellipse cx="545" cy="611.6484" fill="none" rx="3" ry="3" style="stroke:#038048;stroke-width:1.0;"/><text fill="#000000" font-family="sans-serif" font-size="14" lengthAdjust="spacing" textLength="113" x="554" y="614.9951">position : Vector</text><ellipse cx="545" cy="627.9453" fill="none" rx="3" ry="3" style="stroke:#038048;stroke-width:1.0;"/><text fill="#000000" font-family="sans-serif" font-size="14" lengthAdjust="spacing" textLength="109" x="554" y="631.292">velocity : Vector</text><ellipse cx="545" cy="644.2422" fill="none" rx="3" ry="3" style="stroke:#038048;stroke-width:1.0;"/><text fill="#000000" font-family="sans-serif" font-size="14" lengthAdjust="spacing" textLength="144" x="554" y="647.5889">bestPosition : Vector</text><rect fill="none" height="6" style="stroke:#C82930;stroke-width:1.0;" width="6" x="542" y="657.5391"/><text fill="#000000" font-family="sans-serif" font-size="14" lengthAdjust="spacing" textLength="119" x="554" y="663.8857">bestEval : double</text><line style="stroke:#181818;stroke-width:0.5;" x1="535" x2="844" y1="671.1875" y2="671.1875"/><ellipse cx="545" cy="684.8359" fill="#84BE84" rx="3" ry="3" style="stroke:#038048;stroke-width:1.0;"/><text fill="#000000" font-family="sans-serif" font-size="14" lengthAdjust="spacing" textLength="285" x="554" y="688.1826">Particle(a : int, b : int, c : int, d : int, e : int)</text><rect fill="#F24D5C" height="6" style="stroke:#C82930;stroke-width:1.0;" width="6" x="542" y="698.1328"/><text fill="#000000" font-family="sans-serif" font-size="14" lengthAdjust="spacing" textLength="98" x="554" y="704.4795">eval() : double</text><ellipse cx="545" cy="717.4297" fill="#84BE84" rx="3" ry="3" style="stroke:#038048;stroke-width:1.0;"/><text fill="#000000" font-family="sans-serif" font-size="14" lengthAdjust="spacing" textLength="192" x="554" y="720.7764">updatePersonalBest() : void</text><ellipse cx="545" cy="733.7266" fill="#84BE84" rx="3" ry="3" style="stroke:#038048;stroke-width:1.0;"/><text fill="#000000" font-family="sans-serif" font-size="14" lengthAdjust="spacing" textLength="146" x="554" y="737.0732">getPosition() : Vector</text><ellipse cx="545" cy="750.0234" fill="#84BE84" rx="3" ry="3" style="stroke:#038048;stroke-width:1.0;"/><text fill="#000000" font-family="sans-serif" font-size="14" lengthAdjust="spacing" textLength="144" x="554" y="753.3701">getVelocity() : Vector</text><ellipse cx="545" cy="766.3203" fill="#84BE84" rx="3" ry="3" style="stroke:#038048;stroke-width:1.0;"/><text fill="#000000" font-family="sans-serif" font-size="14" lengthAdjust="spacing" textLength="178" x="554" y="769.667">getBestPosition() : Vector</text><ellipse cx="545" cy="782.6172" fill="#84BE84" rx="3" ry="3" style="stroke:#038048;stroke-width:1.0;"/><text fill="#000000" font-family="sans-serif" font-size="14" lengthAdjust="spacing" textLength="153" x="554" y="785.9639">getBestEval() : double</text><ellipse cx="545" cy="798.9141" fill="#84BE84" rx="3" ry="3" style="stroke:#038048;stroke-width:1.0;"/><text fill="#000000" font-family="sans-serif" font-size="14" lengthAdjust="spacing" textLength="155" x="554" y="802.2607">updatePosition() : void</text><ellipse cx="545" cy="815.2109" fill="#84BE84" rx="3" ry="3" style="stroke:#038048;stroke-width:1.0;"/><text fill="#000000" font-family="sans-serif" font-size="14" lengthAdjust="spacing" textLength="235" x="554" y="818.5576">setVelocity(velocity : Vector) : void</text></g><!--class Swarm--><g id="elem_Swarm"><rect codeLine="62" fill="#F1F1F1" height="276.1563" id="Swarm" rx="2.5" ry="2.5" style="stroke:#181818;stroke-width:0.5;" width="408" x="613.5" y="213"/><ellipse cx="790.25" cy="229" fill="#ADD1B2" rx="11" ry="11" style="stroke:#181818;stroke-width:1.0;"/><path d="M793.2188,234.6406 Q792.6406,234.9375 792,235.0781 Q791.3594,235.2344 790.6563,235.2344 Q788.1563,235.2344 786.8281,233.5938 Q785.5156,231.9375 785.5156,228.8125 Q785.5156,225.6875 786.8281,224.0313 Q788.1563,222.375 790.6563,222.375 Q791.3594,222.375 792,222.5313 Q792.6563,222.6875 793.2188,222.9844 L793.2188,225.7031 Q792.5938,225.125 792,224.8594 Q791.4063,224.5781 790.7813,224.5781 Q789.4375,224.5781 788.75,225.6563 Q788.0625,226.7188 788.0625,228.8125 Q788.0625,230.9063 788.75,231.9844 Q789.4375,233.0469 790.7813,233.0469 Q791.4063,233.0469 792,232.7813 Q792.5938,232.5 793.2188,231.9219 L793.2188,234.6406 Z " fill="#000000"/><text fill="#000000" font-family="sans-serif" font-size="14" lengthAdjust="spacing" textLength="46" x="810.75" y="233.8467">Swarm</text><line style="stroke:#181818;stroke-width:0.5;" x1="614.5" x2="1020.5" y1="245" y2="245"/><rect fill="none" height="6" style="stroke:#C82930;stroke-width:1.0;" width="6" x="621.5" y="255.6484"/><text fill="#000000" font-family="sans-serif" font-size="14" lengthAdjust="spacing" textLength="134" x="633.5" y="261.9951">numOfParticles : int</text><rect fill="none" height="6" style="stroke:#C82930;stroke-width:1.0;" width="6" x="621.5" y="271.9453"/><text fill="#000000" font-family="sans-serif" font-size="14" lengthAdjust="spacing" textLength="82" x="633.5" y="278.292">epochs : int</text><rect fill="none" height="6" style="stroke:#C82930;stroke-width:1.0;" width="6" x="621.5" y="288.2422"/><text fill="#000000" font-family="sans-serif" font-size="14" lengthAdjust="spacing" textLength="103" x="633.5" y="294.5889">inertia : double</text><rect fill="none" height="6" style="stroke:#C82930;stroke-width:1.0;" width="6" x="621.5" y="304.5391"/><text fill="#000000" font-family="sans-serif" font-size="14" lengthAdjust="spacing" textLength="205" x="633.5" y="310.8857">cognitiveComponent : double</text><rect fill="none" height="6" style="stroke:#C82930;stroke-width:1.0;" width="6" x="621.5" y="320.8359"/><text fill="#000000" font-family="sans-serif" font-size="14" lengthAdjust="spacing" textLength="182" x="633.5" y="327.1826">socialComponent : double</text><ellipse cx="624.5" cy="340.1328" fill="none" rx="3" ry="3" style="stroke:#038048;stroke-width:1.0;"/><text fill="#000000" font-family="sans-serif" font-size="14" lengthAdjust="spacing" textLength="144" x="633.5" y="343.4795">bestPosition : Vector</text><rect fill="none" height="6" style="stroke:#C82930;stroke-width:1.0;" width="6" x="621.5" y="353.4297"/><text fill="#000000" font-family="sans-serif" font-size="14" lengthAdjust="spacing" textLength="119" x="633.5" y="359.7764">bestEval : double</text><rect fill="none" height="6" style="stroke:#C82930;stroke-width:1.0;" width="6" x="621.5" y="369.7266"/><text fill="#000000" font-family="sans-serif" font-size="14" lengthAdjust="spacing" textLength="108" x="633.5" y="376.0732">particles : int[][]</text><ellipse cx="624.5" cy="389.0234" fill="none" rx="3" ry="3" style="stroke:#038048;stroke-width:1.0;"/><text fill="#000000" font-family="sans-serif" font-size="14" lengthAdjust="spacing" textLength="184" x="633.5" y="392.3701">DEFAULT_INERTIA : double</text><ellipse cx="624.5" cy="405.3203" fill="none" rx="3" ry="3" style="stroke:#038048;stroke-width:1.0;"/><text fill="#000000" font-family="sans-serif" font-size="14" lengthAdjust="spacing" textLength="206" x="633.5" y="408.667">DEFAULT_COGNITIVE : double</text><ellipse cx="624.5" cy="421.6172" fill="none" rx="3" ry="3" style="stroke:#038048;stroke-width:1.0;"/><text fill="#000000" font-family="sans-serif" font-size="14" lengthAdjust="spacing" textLength="180" x="633.5" y="424.9639">DEFAULT_SOCIAL : double</text><ellipse cx="624.5" cy="437.9141" fill="none" rx="3" ry="3" style="stroke:#038048;stroke-width:1.0;"/><text fill="#000000" font-family="sans-serif" font-size="14" lengthAdjust="spacing" textLength="202" x="633.5" y="441.2607">cloudletList : List&lt;cloudlet3&gt;</text><ellipse cx="624.5" cy="454.2109" fill="none" rx="3" ry="3" style="stroke:#038048;stroke-width:1.0;"/><text fill="#000000" font-family="sans-serif" font-size="14" lengthAdjust="spacing" textLength="128" x="633.5" y="457.5576">vmlist : List&lt;vm3&gt;</text><line style="stroke:#181818;stroke-width:0.5;" x1="614.5" x2="1020.5" y1="464.8594" y2="464.8594"/><ellipse cx="624.5" cy="478.5078" fill="#84BE84" rx="3" ry="3" style="stroke:#038048;stroke-width:1.0;"/><text fill="#000000" font-family="sans-serif" font-size="14" lengthAdjust="spacing" textLength="382" x="633.5" y="481.8545">Swarm(particles : int[][], epochs : int, numOfParticles ...)</text></g><!--link Main to Population--><g id="link_Main_Population"><path codeLine="10" d="M461.54,136.16 C430.01,163.69 396.5204,192.9046 359.9604,224.8146 " fill="none" id="Main-to-Population" style="stroke:#181818;stroke-width:1.0;"/><polygon fill="#181818" points="355.44,228.76,364.8508,225.8554,359.207,225.4721,359.5903,219.8283,355.44,228.76" style="stroke:#181818;stroke-width:1.0;"/><text fill="#000000" font-family="sans-serif" font-size="13" lengthAdjust="spacing" textLength="30" x="424.5" y="179.0669">uses</text></g><!--link Main to Individual--><g id="link_Main_Individual"><path codeLine="11" d="M528.95,136.13 C519.78,220.14 496.88,371.19 443.5,489 C428.87,521.29 412.1274,548.5891 391.1574,577.5691 " fill="none" id="Main-to-Individual" style="stroke:#181818;stroke-width:1.0;"/><polygon fill="#181818" points="387.64,582.43,396.1566,577.4836,390.5711,578.3793,389.6754,572.7938,387.64,582.43" style="stroke:#181818;stroke-width:1.0;"/><text fill="#000000" font-family="sans-serif" font-size="13" lengthAdjust="spacing" textLength="4" x="519.5" y="355.5669">&#160;</text></g><!--link Main to Particle--><g id="link_Main_Particle"><path codeLine="12" d="M536.87,136.25 C541.35,219.1 554.15,367.56 590.5,489 C598.15,514.56 606.1409,535.4416 617.4109,560.4016 " fill="none" id="Main-to-Particle" style="stroke:#181818;stroke-width:1.0;"/><polygon fill="#181818" points="619.88,565.87,619.8219,556.0213,617.8224,561.313,612.5307,559.3135,619.88,565.87" style="stroke:#181818;stroke-width:1.0;"/><text fill="#000000" font-family="sans-serif" font-size="13" lengthAdjust="spacing" textLength="4" x="591.5" y="355.5669">&#160;</text></g><!--link Main to Swarm--><g id="link_Main_Swarm"><path codeLine="13" d="M599.43,136.16 C622.84,159.13 645.9753,181.8099 673.3253,208.6199 " fill="none" id="Main-to-Swarm" style="stroke:#181818;stroke-width:1.0;"/><polygon fill="#181818" points="677.61,212.82,673.983,203.6633,674.0394,209.3199,668.3828,209.3763,677.61,212.82" style="stroke:#181818;stroke-width:1.0;"/><text fill="#000000" font-family="sans-serif" font-size="13" lengthAdjust="spacing" textLength="30" x="643.5" y="179.0669">uses</text></g><!--reverse link Population to Individual--><g id="link_Population_Individual"><path codeLine="30" d="M245.6122,485.1333 C253.3622,520.5933 259.24,547.46 266.87,582.35 " fill="none" id="Population-backto-Individual" style="stroke:#181818;stroke-width:1.0;"/><polygon fill="#181818" points="243.05,473.41,240.4233,480.1257,245.6122,485.1333,248.2389,478.4176,243.05,473.41" style="stroke:#181818;stroke-width:1.0;"/><text fill="#000000" font-family="sans-serif" font-size="13" lengthAdjust="spacing" textLength="54" x="257.5" y="532.0669">contains</text></g><!--reverse link Swarm to Particle--><g id="link_Swarm_Particle"><path codeLine="79" d="M762.165,500.2829 C752.695,525.6629 747.03,540.85 737.65,565.98 " fill="none" id="Swarm-backto-Particle" style="stroke:#181818;stroke-width:1.0;"/><polygon fill="#181818" points="766.36,489.04,760.5149,493.2631,762.165,500.2829,768.0101,496.0598,766.36,489.04" style="stroke:#181818;stroke-width:1.0;"/><text fill="#000000" font-family="sans-serif" font-size="13" lengthAdjust="spacing" textLength="54" x="754.5" y="532.0669">contains</text></g><!--SRC=[bLLBRzim3BxdLmWzEKkSosx3KA3rqi90sWHBbaiG58fDEm9aoR1a3rkn_puz_90VmRfBOlCZnOyVIJcYM0ZqWWb3xpE4_8ZoCgOWDqH8z0Nflw-DxVEzzgWowc1LPgoBg00iuVZYbGAAC5OmONA9gapOn_bqG50VFGXhCWw3UqmMcMBjuIBLNdjP49QUpjgruYIU_PdDJ5M-Vu_GZkSbnP9mfc2LIZXOo69IaRZ4L65twCuDmuKa4OKHiF-9YwmvQXOP3PqSHidSpTabEPtxu1EH38Gk8URbXO8kh3lAwnptv3VKSdp0HsbuBNZ61SzW0ooLLoSs1TaH4jvyJ52xA6OIXFHuaWYGNISwL-seeDsm62yP5DLsnPuy3fZtwXUg36DI6UiSNT8UdwNwSThNUOs9fZSFcIZgMYO9jHoQQNBwYpxv_c1m8iwa6ezs6XpmtOnxsmsRquv1Cj5yX-GuQ7xJOwh9GOisQhRD3GQ10xcVWS50w5IPEhsSRevy-qTzS2Qc9q5okzZ6R1zrB-gDQzRJA9npGUfjEq8aUQ6D5L0U4VchPxoegTvDUFiQM5Ucdyuorbayt2XnQLUiUMWlBcT3VL0d3SefyrXTUZie16UOFkhj6gs6vMNi7MM57EjIniYZKyyqkhv9nGrhQ0WdsKX0ToLi6-nbQEuyLcRRf15Cj6FWGywZg_DE62WVx1Bo8vuonQM2W6SvPy1a3nQA1gQJsFyrrC_x_4vdknJVrayFFpQ7j_1r_VqGFlGID5YmVNuD3-5nFOdkjq7uiEb1__oSBgO_fqPJRuAf6Z57ooKQABvQhUQwCxOd-ffolc7j7VKN]--></g></svg>